<?xml version="1.0" encoding="UTF-8"?>
<svg version="1.1" xmlns="http://www.w3.org/2000/svg" width="500" height="500">
<path d="M0 0 C11.31923612 9.8919419 17.93467163 22.91013711 19.2578125 37.92578125 C19.87895473 54.88296415 13.78556006 68.00377187 2.734375 80.3828125 C1 82 1 82 -1 82 C-1 82.66 -1 83.32 -1 84 C-12.21289314 93.47949903 -26.43917136 96.75891114 -40.84375 95.67163086 C-53.19108936 94.4381831 -63.49027192 90.18950553 -73 82 C-73 81.34 -73 80.68 -73 80 C-73.66 80 -74.32 80 -75 80 C-75 79.34 -75 78.68 -75 78 C-75.66 78 -76.32 78 -77 78 C-87.85659339 65.10580551 -90.84094069 50.371505 -90 34 C-89.65572532 30.8433406 -89.00171044 28.01040348 -88 25 C-87.69320312 24.06800781 -87.38640625 23.13601562 -87.0703125 22.17578125 C-82.13778909 8.89198544 -72.33690152 -1.82981121 -59.75 -8.375 C-39.59824779 -17.54222996 -16.99524231 -13.65738785 0 0 Z M-69 11 C-77.35892371 21.71240709 -80.99478784 33.48154388 -80 47 C-78.50647303 55.09359834 -75.54949143 62.17576285 -71 69 C-70.34 69 -69.68 69 -69 69 C-68.75378906 69.5878125 -68.50757813 70.175625 -68.25390625 70.78125 C-63.99334236 78.32019171 -54.46855397 82.3166971 -46.55078125 84.75390625 C-33.51176524 87.85286521 -21.26400014 84.78400008 -10 78 C-10 77.34 -10 76.68 -10 76 C-9.11441406 75.59394531 -9.11441406 75.59394531 -8.2109375 75.1796875 C-0.26478082 70.93986538 3.77178284 63.08601358 7 55 C10.37139836 43.6437108 9.24707715 32.48307789 4.1875 21.75 C1.1596128 16.20467402 -2.02238021 10.55079465 -8 8 C-8 7.34 -8 6.68 -8 6 C-10.51478831 4.67467939 -13.03581987 3.36479769 -15.5625 2.0625 C-16.26697266 1.68931641 -16.97144531 1.31613281 -17.69726562 0.93164062 C-34.8146375 -7.82425006 -55.70686878 -2.12049315 -69 11 Z " fill="#1F1F1F" transform="translate(321,170)"/>
<path d="M0 0 C0 1.32 0 2.64 0 4 C-0.66 4 -1.32 4 -2 4 C-2.4021875 4.9590625 -2.4021875 4.9590625 -2.8125 5.9375 C-4 8 -4 8 -7 9 C-8.90234375 8.29296875 -8.90234375 8.29296875 -10.9375 7.1875 C-11.60652344 6.83042969 -12.27554688 6.47335938 -12.96484375 6.10546875 C-13.63644531 5.74066406 -14.30804688 5.37585938 -15 5 C-23.23909522 0.60685814 -33.87443854 1.09278123 -42.76953125 3.296875 C-46.6686066 4.52600558 -50.30929844 6.25816019 -54 8 C-55.66194738 8.67834587 -57.32598903 9.35199575 -59 10 C-59 10.66 -59 11.32 -59 12 C-59.86625 12.66 -60.7325 13.32 -61.625 14 C-68.76399726 19.75507817 -71.88984753 28.34685676 -74 37 C-74.27650391 38.02480469 -74.27650391 38.02480469 -74.55859375 39.0703125 C-76.7969159 48.85554383 -73.2591414 59.9491338 -68.6328125 68.55078125 C-63.14005232 76.78992153 -56.13034315 82.34786274 -47 86 C-46.05125 86.4125 -45.1025 86.825 -44.125 87.25 C-33.65990552 89.76162268 -22.55380095 89.70636414 -12.69921875 84.87109375 C-11.79623047 84.31615234 -11.79623047 84.31615234 -10.875 83.75 C-8 82 -8 82 -5.8125 82 C-3.33255082 83.36824782 -1.73304459 84.75346072 0 87 C-0.23164112 89.49383843 -0.62806021 90.64894453 -2.4609375 92.37890625 C-15.92376724 100.70388056 -31.83152793 101.30455999 -47 98 C-60.78454695 94.21717174 -72.38572034 83.82176073 -79.8125 71.8125 C-86.42738569 58.78944381 -88.05832884 44.16205164 -84.109375 30.1171875 C-80.94261911 21.21904948 -76.81407003 12.65560329 -70 6 C-69.34 6 -68.68 6 -68 6 C-68 5.34 -68 4.68 -68 4 C-66.35 3.34 -64.7 2.68 -63 2 C-63 1.34 -63 0.68 -63 0 C-62.01 0 -61.02 0 -60 0 C-60 -0.66 -60 -1.32 -60 -2 C-40.51982832 -13.07696037 -18.71759636 -11.18711272 0 0 Z " fill="#212121" transform="translate(246,166)"/>
<path d="M0 0 C8.29111094 13.15024562 11.3983419 27.43656584 8.234375 42.69140625 C6.45019102 48.80152838 4.05992557 54.42656414 1 60 C-3 60 -3 60 -5.3125 58.4375 C-7 56 -7 56 -7 53.0625 C-6.28169431 49.53146047 -5.06829327 46.16669793 -3.9375 42.75 C-0.75521457 32.59920634 -1.42998741 23.97691019 -5 14 C-5.8971875 12.2984375 -5.8971875 12.2984375 -6.8125 10.5625 C-8 8 -8 8 -7.4375 5.875 C-2.93333333 0 -2.93333333 0 0 0 Z " fill="#292929" transform="translate(260,181)"/>
<path d="M0 0 C1.32 0 2.64 0 4 0 C8.83293276 10.63245208 7.59095659 22.22713022 4 33 C2.68 33 1.36 33 0 33 C-5.05908521 24.90546367 -3.40392938 12.91193239 -1.53515625 4.06640625 C-1 2 -1 2 0 0 Z " fill="#222221" transform="translate(248,195)"/>
<path d="M0 0 C0.66 0.33 1.32 0.66 2 1 C-2.62 5.62 -7.24 10.24 -12 15 C-12.66 14.67 -13.32 14.34 -14 14 C-12.60919892 12.41224451 -11.21211596 10.82999061 -9.8125 9.25 C-8.64654297 7.92742187 -8.64654297 7.92742187 -7.45703125 6.578125 C-5.11544754 4.12113732 -2.69841735 2.05137234 0 0 Z " fill="#6F6F6F" transform="translate(254,166)"/>
</svg>
